<svg data-v-423bf9ae="" xmlns="http://www.w3.org/2000/svg" viewBox="0 0 289 108" class="iconLeft"><!----><!----><!----><g data-v-423bf9ae="" id="a64d4825-74c3-4fc0-bd03-d7d65273c341" fill="#cd8c2a" transform="matrix(5.582953517094526,0,0,5.582953517094526,98.33994845342538,19.995264103096638)"><path d="M4.26 4.14L4.26 4.14L4.26 4.14Q4.26 4.23 4.26 4.30L4.26 4.30L4.26 4.30Q4.27 4.38 4.27 4.47L4.27 4.47L4.27 4.47Q4.30 4.63 4.31 4.81L4.31 4.81L4.31 4.81Q4.33 4.98 4.35 5.15L4.35 5.15L4.35 5.15Q4.59 5.12 4.82 5.11L4.82 5.11L4.82 5.11Q5.05 5.10 5.29 5.11L5.29 5.11L5.29 5.11Q5.40 5.10 5.49 5.10L5.49 5.10L5.49 5.10Q5.59 5.10 5.70 5.08L5.70 5.08L5.66 5.12L5.66 5.12Q5.78 5.14 5.91 5.14L5.91 5.14L5.91 5.14Q6.03 5.15 6.16 5.18L6.16 5.18L6.24 5.18L6.22 5.21L6.23 5.21L6.24 5.21L6.24 5.21Q6.38 5.25 6.31 5.38L6.31 5.38L6.31 5.38Q6.24 5.52 6.09 5.67L6.09 5.67L6.09 5.67Q5.94 5.82 5.77 5.96L5.77 5.96L5.77 5.96Q5.60 6.09 5.53 6.12L5.53 6.12L5.53 6.12Q5.52 6.12 5.50 6.13L5.50 6.13L5.50 6.13Q5.49 6.13 5.47 6.13L5.47 6.13L5.40 6.13L5.40 6.13Q5.26 6.15 5.14 6.15L5.14 6.15L5.14 6.15Q5.01 6.16 4.89 6.16L4.89 6.16L4.89 6.16Q4.77 6.17 4.68 6.18L4.68 6.18L4.68 6.18Q4.58 6.19 4.48 6.20L4.48 6.20L4.48 6.20Q4.52 6.64 4.55 7.06L4.55 7.06L4.55 7.06Q4.58 7.49 4.56 7.91L4.56 7.91L4.56 7.91Q4.55 8.25 4.54 8.68L4.54 8.68L4.54 8.68Q4.54 9.11 4.54 9.52L4.54 9.52L4.54 9.52Q4.56 9.74 4.58 9.96L4.58 9.96L4.58 9.96Q4.59 10.18 4.59 10.39L4.59 10.39L4.59 10.39Q4.58 10.47 4.47 10.63L4.47 10.63L4.47 10.63Q4.35 10.79 4.21 10.94L4.21 10.94L4.21 10.94Q4.07 11.09 3.93 11.18L3.93 11.18L3.93 11.18Q3.78 11.27 3.68 11.20L3.68 11.20L3.68 11.20Q3.68 11.20 3.67 11.21L3.67 11.21L3.67 11.19L3.67 11.19Q3.65 11.12 3.65 11.07L3.65 11.07L3.65 11.07Q3.64 11.02 3.63 10.96L3.63 10.96L3.63 10.96Q3.54 11.06 3.45 11.15L3.45 11.15L3.45 11.15Q3.36 11.24 3.27 11.30L3.27 11.30L3.27 11.30Q3.18 11.35 3.10 11.38L3.10 11.38L3.10 11.38Q3.02 11.40 2.97 11.34L2.97 11.34L2.97 11.34Q2.80 10.89 2.79 10.41L2.79 10.41L2.79 10.41Q2.79 9.93 2.77 9.45L2.77 9.45L2.77 9.45Q2.73 8.69 2.71 7.96L2.71 7.96L2.71 7.96Q2.69 7.22 2.70 6.47L2.70 6.47L2.70 6.47Q2.59 6.50 2.50 6.51L2.50 6.51L2.50 6.51Q2.41 6.52 2.30 6.54L2.30 6.54L2.28 6.54L2.03 6.83L2.03 6.83Q1.75 6.83 1.46 6.86L1.46 6.86L1.46 6.86Q1.16 6.89 0.90 6.82L0.90 6.82L0.90 6.82Q0.83 6.76 0.87 6.62L0.87 6.62L0.87 6.62Q0.85 6.62 0.85 6.62L0.85 6.62L0.85 6.62Q0.85 6.61 0.87 6.61L0.87 6.61L0.87 6.61Q0.83 6.58 0.83 6.55L0.83 6.55L0.83 6.55Q0.80 6.55 0.78 6.57L0.78 6.57L0.78 6.57Q0.77 6.58 0.74 6.58L0.74 6.58L0.74 6.58Q0.64 6.59 0.62 6.57L0.62 6.57L0.62 6.57Q0.60 6.55 0.62 6.45L0.62 6.45L0.62 6.45Q0.73 6.01 1.02 5.83L1.02 5.83L1.02 5.83Q1.32 5.66 1.68 5.59L1.68 5.59L1.68 5.59Q1.93 5.50 2.19 5.43L2.19 5.43L2.19 5.43Q2.45 5.36 2.72 5.31L2.72 5.31L2.72 5.31Q2.72 5.12 2.72 4.96L2.72 4.96L2.72 4.96Q2.72 4.77 2.74 4.61L2.74 4.61L2.74 4.61Q2.76 4.49 2.88 4.30L2.88 4.30L2.88 4.30Q3.01 4.12 3.18 3.96L3.18 3.96L3.18 3.96Q3.25 3.70 3.51 3.48L3.51 3.48L3.51 3.48Q3.77 3.26 4.00 3.19L4.00 3.19L4.00 3.19Q4.10 3.21 4.15 3.30L4.15 3.30L4.15 3.30Q4.20 3.39 4.22 3.52L4.22 3.52L4.22 3.52Q4.24 3.65 4.24 3.79L4.24 3.79L4.24 3.79Q4.24 3.93 4.24 4.06L4.24 4.06L4.24 4.06Q4.26 4.09 4.26 4.14ZM7.25 9.52L7.25 9.52L7.25 9.52Q7.04 9.10 7.02 8.63L7.02 8.63L7.02 8.63Q7 8.16 7.13 7.69L7.13 7.69L7.13 7.69Q7.27 7.22 7.53 6.78L7.53 6.78L7.53 6.78Q7.80 6.33 8.15 5.96L8.15 5.96L8.15 5.96Q8.18 5.94 8.20 5.90L8.20 5.90L8.20 5.90Q8.23 5.87 8.26 5.84L8.26 5.84L8.26 5.84Q8.43 5.66 8.65 5.45L8.65 5.45L8.65 5.45Q8.88 5.25 9.13 5.08L9.13 5.08L9.13 5.08Q9.38 4.91 9.65 4.81L9.65 4.81L9.65 4.81Q9.93 4.70 10.19 4.73L10.19 4.73L10.19 4.73Q10.36 4.76 10.51 4.79L10.51 4.79L10.51 4.79Q10.65 4.82 10.81 4.84L10.81 4.84L10.81 4.84Q11.34 4.77 11.79 5.04L11.79 5.04L11.79 5.04Q11.98 5.17 12.19 5.29L12.19 5.29L12.19 5.29Q12.39 5.40 12.56 5.56L12.56 5.56L12.56 5.56Q12.85 5.87 13.06 6.22L13.06 6.22L13.06 6.22Q13.27 6.57 13.37 6.94L13.37 6.94L13.37 6.94Q13.40 7 13.43 7.04L13.43 7.04L13.43 7.04Q13.45 7.08 13.48 7.14L13.48 7.14L13.48 7.14Q13.61 7.39 13.66 7.72L13.66 7.72L13.66 7.72Q13.72 8.05 13.62 8.33L13.62 8.33L13.62 8.33Q13.45 8.83 13.36 9.10L13.36 9.10L13.36 9.10Q13.26 9.37 13.11 9.55L13.11 9.55L13.11 9.55Q12.96 9.74 12.74 9.94L12.74 9.94L12.74 9.94Q12.52 10.14 12.10 10.51L12.10 10.51L12.10 10.51Q11.94 10.67 11.75 10.77L11.75 10.77L11.75 10.77Q11.55 10.88 11.34 10.92L11.34 10.92L11.34 10.92Q11.07 10.98 10.79 10.96L10.79 10.96L10.79 10.96Q10.51 10.95 10.25 10.93L10.25 10.93L10.25 10.93Q9.93 10.92 9.67 10.91L9.67 10.91L9.67 10.91Q9.42 10.91 9.20 10.88L9.20 10.88L9.20 10.88Q8.97 10.85 8.74 10.77L8.74 10.77L8.74 10.77Q8.51 10.68 8.23 10.51L8.23 10.51L8.23 10.51Q8.22 10.51 8.20 10.50L8.20 10.50L8.20 10.50Q7.52 10.15 7.25 9.52ZM12.21 7.67L12.21 7.67L12.21 7.67Q11.96 7.34 11.58 7.01L11.58 7.01L11.58 7.01Q11.20 6.69 10.76 6.47L10.76 6.47L10.76 6.47Q10.32 6.26 9.86 6.18L9.86 6.18L9.86 6.18Q9.39 6.10 8.97 6.26L8.97 6.26L8.97 6.26Q8.74 6.45 8.57 6.75L8.57 6.75L8.57 6.75Q8.18 7.39 8.19 7.95L8.19 7.95L8.19 7.95Q8.20 8.51 8.53 8.90L8.53 8.90L8.53 8.90Q8.86 9.30 9.46 9.46L9.46 9.46L9.46 9.46Q10.05 9.63 10.82 9.51L10.82 9.51L10.82 9.51Q10.96 9.48 11.16 9.44L11.16 9.44L11.16 9.44Q11.35 9.39 11.56 9.32L11.56 9.32L11.56 9.32Q11.77 9.24 11.96 9.13L11.96 9.13L11.96 9.13Q12.15 9.03 12.28 8.90L12.28 8.90L12.28 8.90Q12.52 8.64 12.47 8.29L12.47 8.29L12.47 8.29Q12.42 7.95 12.21 7.67ZM12.54 9.55L12.54 9.55L12.54 9.55Q12.39 9.70 12.21 9.83L12.21 9.83L12.21 9.83Q12.04 9.95 11.89 10.07L11.89 10.07L11.89 10.07Q12.04 10.04 12.12 9.98L12.12 9.98L12.12 9.98Q12.22 9.90 12.33 9.81L12.33 9.81L12.33 9.81Q12.45 9.73 12.52 9.62L12.52 9.62L12.52 9.62Q12.53 9.60 12.53 9.59L12.53 9.59L12.53 9.59Q12.53 9.58 12.54 9.55ZM18.47 5.40L18.47 5.40L18.47 5.40Q18.09 5.40 17.66 5.42L17.66 5.42L17.66 5.42Q17.23 5.43 16.81 5.45L16.81 5.45L16.81 5.45Q16.38 5.46 15.97 5.48L15.97 5.48L15.97 5.48Q15.55 5.50 15.20 5.52L15.20 5.52L15.20 5.52Q14.60 5.59 14.17 5.73L14.17 5.73L14.17 5.73Q14.07 5.74 14.05 5.69L14.05 5.69L14.05 5.69Q14.03 5.64 14.05 5.57L14.05 5.57L14.05 5.57Q14.07 5.50 14.12 5.43L14.12 5.43L14.12 5.43Q14.17 5.36 14.20 5.32L14.20 5.32L14.20 5.32Q14.32 5.15 14.49 4.95L14.49 4.95L14.49 4.95Q14.66 4.75 14.88 4.68L14.88 4.68L14.90 4.68L14.90 4.68Q14.99 4.58 15.10 4.50L15.10 4.50L15.10 4.50Q15.20 4.42 15.32 4.38L15.32 4.38L15.32 4.38Q15.74 4.23 16.25 4.12L16.25 4.12L16.25 4.12Q16.76 4.02 17.28 3.97L17.28 3.97L17.28 3.97Q17.81 3.92 18.33 3.93L18.33 3.93L18.33 3.93Q18.84 3.95 19.28 4.03L19.28 4.03L19.28 4.03Q19.38 4.06 19.37 4.10L19.37 4.10L19.37 4.10Q19.36 4.14 19.33 4.23L19.33 4.23L19.33 4.23Q19.32 4.26 19.31 4.29L19.31 4.29L19.31 4.29Q19.29 4.33 19.28 4.35L19.28 4.35L19.28 4.35Q19.24 4.38 19.19 4.40L19.19 4.40L19.19 4.40Q19.15 4.42 19.11 4.45L19.11 4.45L19.11 4.45Q19.18 4.47 19.24 4.47L19.24 4.47L19.24 4.47Q19.29 4.47 19.35 4.48L19.35 4.48L19.52 4.48L19.52 4.48Q19.52 4.48 19.54 4.49L19.54 4.49L19.54 4.49Q19.56 4.49 19.59 4.52L19.59 4.52L19.59 4.52Q19.66 4.54 19.72 4.55L19.72 4.55L19.72 4.55Q19.78 4.56 19.85 4.58L19.85 4.58L19.87 4.58L19.87 4.58Q19.88 4.59 19.92 4.59L19.92 4.59L19.92 4.59Q19.95 4.73 19.87 4.89L19.87 4.89L19.87 4.89Q19.78 5.04 19.64 5.17L19.64 5.17L19.64 5.17Q19.50 5.31 19.34 5.40L19.34 5.40L19.34 5.40Q19.18 5.49 19.05 5.50L19.05 5.50L19.05 5.50Q18.90 5.49 18.76 5.46L18.76 5.46L18.76 5.46Q18.62 5.43 18.47 5.40ZM26.75 2.84L26.75 2.84L26.75 2.84Q26.75 2.91 26.75 2.98L26.75 2.98L26.75 2.98Q26.74 3.05 26.73 3.12L26.73 3.12L26.73 3.12Q26.71 3.28 26.71 3.44L26.71 3.44L26.71 3.44Q26.71 3.60 26.71 3.74L26.71 3.74L26.71 3.74Q26.68 4.45 26.67 5.14L26.67 5.14L26.67 5.14Q26.66 5.82 26.63 6.52L26.63 6.52L26.63 6.52Q26.64 6.73 26.66 6.94L26.66 6.94L26.66 6.94Q26.68 7.14 26.71 7.34L26.71 7.34L26.74 7.32L26.74 7.32Q26.71 7.35 26.71 7.36L26.71 7.36L26.71 7.36Q26.71 7.48 26.73 7.53L26.73 7.53L26.73 7.53Q26.74 7.69 26.75 7.83L26.75 7.83L26.75 7.83Q26.75 7.98 26.78 8.13L26.78 8.13L26.87 8.72L26.87 8.72Q26.89 8.89 26.88 9.07L26.88 9.07L26.88 9.07Q26.87 9.25 26.88 9.42L26.88 9.42L26.88 9.42Q26.94 9.63 26.94 9.73L26.94 9.73L26.94 9.73Q26.92 9.81 26.82 9.96L26.82 9.96L26.82 9.96Q26.71 10.11 26.59 10.26L26.59 10.26L26.59 10.26Q26.46 10.40 26.32 10.49L26.32 10.49L26.32 10.49Q26.18 10.58 26.07 10.56L26.07 10.56L26.07 10.56Q26.03 10.58 25.97 10.56L25.97 10.56L25.97 10.56Q25.96 10.58 25.94 10.59L25.94 10.59L25.94 10.59Q25.93 10.60 25.91 10.63L25.91 10.63L25.91 10.53L25.91 10.53Q25.90 10.49 25.89 10.44L25.89 10.44L25.89 10.44Q25.87 10.39 25.86 10.33L25.86 10.33L25.86 10.33Q25.80 10.35 25.75 10.32L25.75 10.32L25.73 10.33L25.73 10.29L25.73 10.29Q25.61 9.87 25.56 9.38L25.56 9.38L25.56 9.38Q25.19 9.79 24.77 9.98L24.77 9.98L24.77 9.98Q24.12 10.30 23.53 10.45L23.53 10.45L23.53 10.45Q22.93 10.60 22.22 10.67L22.22 10.67L22.22 10.67Q21.92 10.70 21.64 10.65L21.64 10.65L21.64 10.65Q21.35 10.60 21.10 10.47L21.10 10.47L21.10 10.47Q20.85 10.35 20.64 10.14L20.64 10.14L20.64 10.14Q20.44 9.94 20.33 9.66L20.33 9.66L20.33 9.66Q20.22 9.38 20.35 9.02L20.35 9.02L20.35 9.02Q20.48 8.65 20.72 8.30L20.72 8.30L20.72 8.30Q20.79 8.15 20.86 8.02L20.86 8.02L20.86 8.02Q20.93 7.88 20.99 7.78L20.99 7.78L20.99 7.78Q21.22 7.31 21.62 6.87L21.62 6.87L21.62 6.87Q22.02 6.44 22.49 6.08L22.49 6.08L22.49 6.08Q22.96 5.71 23.48 5.42L23.48 5.42L23.48 5.42Q24.01 5.14 24.50 4.96L24.50 4.96L24.50 4.96Q24.68 4.89 24.95 4.88L24.95 4.88L24.95 4.88Q25.21 4.87 25.48 4.93L25.48 4.93L25.48 4.93Q25.49 4.69 25.51 4.45L25.51 4.45L25.51 4.45Q25.52 4.21 25.55 3.98L25.55 3.98L25.55 3.98Q25.58 3.61 25.61 3.27L25.61 3.27L25.61 3.27Q25.63 2.93 25.72 2.60L25.72 2.60L25.72 2.60Q25.70 2.11 25.82 1.67L25.82 1.67L25.82 1.67Q25.93 1.23 26.36 0.88L26.36 0.88L26.36 0.88Q26.45 0.81 26.54 0.74L26.54 0.74L26.54 0.74Q26.64 0.67 26.75 0.67L26.75 0.67L26.75 0.67Q26.87 0.63 26.96 0.64L26.96 0.64L26.96 0.64Q27.05 0.71 27.05 0.91L27.05 0.91L27.05 0.91Q27.06 1.11 27.03 1.37L27.03 1.37L27.03 1.37Q27.05 1.51 27.03 1.69L27.03 1.69L27.03 1.69Q27.01 1.88 26.96 2.07L26.96 2.07L26.96 2.07Q26.92 2.27 26.87 2.46L26.87 2.46L26.87 2.46Q26.81 2.66 26.75 2.84ZM25.49 8.12L25.49 8.12L25.49 8.12Q25.42 7.62 25.40 7.12L25.40 7.12L25.40 7.12Q25.37 6.62 25.40 6.12L25.40 6.12L25.33 6.12L25.24 6.17L25.24 6.17Q25.23 6.17 25.23 6.19L25.23 6.19L25.23 6.19Q25.20 6.17 25.16 6.13L25.16 6.13L25.16 6.13Q25.09 6.15 25.02 6.15L25.02 6.15L25.02 6.15Q24.95 6.16 24.88 6.16L24.88 6.16L24.88 6.16Q24.54 6.23 24.15 6.38L24.15 6.38L24.15 6.38Q23.76 6.54 23.39 6.75L23.39 6.75L23.39 6.75Q23.02 6.97 22.70 7.24L22.70 7.24L22.70 7.24Q22.39 7.50 22.19 7.80L22.19 7.80L22.19 7.80Q21.99 8.11 21.97 8.42L21.97 8.42L21.97 8.42Q21.94 8.74 22.13 9.06L22.13 9.06L22.13 9.06Q22.27 9.28 22.53 9.29L22.53 9.29L22.53 9.29Q22.78 9.30 22.99 9.25L22.99 9.25L22.99 9.25Q23.17 9.21 23.48 9.11L23.48 9.11L23.48 9.11Q23.79 9.00 24.14 8.84L24.14 8.84L24.14 8.84Q24.50 8.68 24.86 8.49L24.86 8.49L24.86 8.49Q25.21 8.30 25.49 8.12ZM21.97 7.34L21.97 7.34L21.97 7.34Q21.87 7.45 21.75 7.59L21.75 7.59L21.75 7.59Q21.63 7.73 21.52 7.88L21.52 7.88L21.52 7.88Q21.46 8.02 21.43 8.16L21.43 8.16L21.43 8.16Q21.78 7.67 22.29 7.15L22.29 7.15L22.29 7.15Q22.81 6.64 23.41 6.22L23.41 6.22L23.41 6.22Q23.11 6.30 22.79 6.54L22.79 6.54L22.79 6.54Q22.46 6.79 21.97 7.34ZM27.65 9.52L27.65 9.52L27.65 9.52Q27.44 9.10 27.42 8.63L27.42 8.63L27.42 8.63Q27.40 8.16 27.53 7.69L27.53 7.69L27.53 7.69Q27.66 7.22 27.93 6.78L27.93 6.78L27.93 6.78Q28.20 6.33 28.55 5.96L28.55 5.96L28.55 5.96Q28.57 5.94 28.60 5.90L28.60 5.90L28.60 5.90Q28.63 5.87 28.66 5.84L28.66 5.84L28.66 5.84Q28.83 5.66 29.05 5.45L29.05 5.45L29.05 5.45Q29.27 5.25 29.53 5.08L29.53 5.08L29.53 5.08Q29.78 4.91 30.05 4.81L30.05 4.81L30.05 4.81Q30.32 4.70 30.59 4.73L30.59 4.73L30.59 4.73Q30.76 4.76 30.91 4.79L30.91 4.79L30.91 4.79Q31.05 4.82 31.21 4.84L31.21 4.84L31.21 4.84Q31.74 4.77 32.19 5.04L32.19 5.04L32.19 5.04Q32.38 5.17 32.59 5.29L32.59 5.29L32.59 5.29Q32.79 5.40 32.96 5.56L32.96 5.56L32.96 5.56Q33.25 5.87 33.46 6.22L33.46 6.22L33.46 6.22Q33.67 6.57 33.77 6.94L33.77 6.94L33.77 6.94Q33.80 7 33.82 7.04L33.82 7.04L33.82 7.04Q33.85 7.08 33.88 7.14L33.88 7.14L33.88 7.14Q34.01 7.39 34.06 7.72L34.06 7.72L34.06 7.72Q34.12 8.05 34.02 8.33L34.02 8.33L34.02 8.33Q33.85 8.83 33.75 9.10L33.75 9.10L33.75 9.10Q33.66 9.37 33.51 9.55L33.51 9.55L33.51 9.55Q33.36 9.74 33.14 9.94L33.14 9.94L33.14 9.94Q32.91 10.14 32.49 10.51L32.49 10.51L32.49 10.51Q32.34 10.67 32.14 10.77L32.14 10.77L32.14 10.77Q31.95 10.88 31.74 10.92L31.74 10.92L31.74 10.92Q31.47 10.98 31.19 10.96L31.19 10.96L31.19 10.96Q30.91 10.95 30.65 10.93L30.65 10.93L30.65 10.93Q30.32 10.92 30.07 10.91L30.07 10.91L30.07 10.91Q29.82 10.91 29.60 10.88L29.60 10.88L29.60 10.88Q29.37 10.85 29.14 10.77L29.14 10.77L29.14 10.77Q28.91 10.68 28.63 10.51L28.63 10.51L28.63 10.51Q28.62 10.51 28.60 10.50L28.60 10.50L28.60 10.50Q27.92 10.15 27.65 9.52ZM32.61 7.67L32.61 7.67L32.61 7.67Q32.35 7.34 31.98 7.01L31.98 7.01L31.98 7.01Q31.60 6.69 31.16 6.47L31.16 6.47L31.16 6.47Q30.72 6.26 30.25 6.18L30.25 6.18L30.25 6.18Q29.79 6.10 29.37 6.26L29.37 6.26L29.37 6.26Q29.13 6.45 28.97 6.75L28.97 6.75L28.97 6.75Q28.57 7.39 28.59 7.95L28.59 7.95L28.59 7.95Q28.60 8.51 28.93 8.90L28.93 8.90L28.93 8.90Q29.26 9.30 29.86 9.46L29.86 9.46L29.86 9.46Q30.45 9.63 31.22 9.51L31.22 9.51L31.22 9.51Q31.36 9.48 31.56 9.44L31.56 9.44L31.56 9.44Q31.75 9.39 31.96 9.32L31.96 9.32L31.96 9.32Q32.17 9.24 32.36 9.13L32.36 9.13L32.36 9.13Q32.55 9.03 32.68 8.90L32.68 8.90L32.68 8.90Q32.91 8.64 32.87 8.29L32.87 8.29L32.87 8.29Q32.82 7.95 32.61 7.67ZM32.94 9.55L32.94 9.55L32.94 9.55Q32.79 9.70 32.61 9.83L32.61 9.83L32.61 9.83Q32.44 9.95 32.28 10.07L32.28 10.07L32.28 10.07Q32.44 10.04 32.52 9.98L32.52 9.98L32.52 9.98Q32.62 9.90 32.73 9.81L32.73 9.81L32.73 9.81Q32.84 9.73 32.91 9.62L32.91 9.62L32.91 9.62Q32.93 9.60 32.93 9.59L32.93 9.59L32.93 9.59Q32.93 9.58 32.94 9.55Z"></path></g><defs data-v-423bf9ae=""><linearGradient data-v-423bf9ae="" gradientTransform="rotate(25)" id="839752cc-9675-4693-98b1-105d9b2b6e5e" x1="0%" y1="0%" x2="100%" y2="0%"><stop data-v-423bf9ae="" offset="0%" style="stop-color: rgb(28, 8, 93); stop-opacity: 1;"></stop><stop data-v-423bf9ae="" offset="100%" style="stop-color: rgb(205, 140, 42); stop-opacity: 1;"></stop></linearGradient></defs><g data-v-423bf9ae="" id="6adee3b7-e33f-4c91-959a-2573449c77f0" transform="matrix(1.0909444173177083,0,0,1.0909444173177083,-12.979298642696811,-0.6085710710180123)" stroke="none" fill="url(#839752cc-9675-4693-98b1-105d9b2b6e5e)"><path clip-rule="evenodd" d="M71.596 83.248H27.671V67.745L12.167 52.243V98.75h74.931V16.068l-15.502 20.67v46.51zM87.098 3.149L84.517.565 38.005 36.739l-12.919-12.92-12.919 15.503 25.838 25.839L87.098 3.149z"></path></g><!----></svg>